<mxfile modified="2024-03-27T11:29:22.785Z" host="app.diagrams.net" agent="Mozilla/5.0 (Windows NT 10.0; Win64; x64) AppleWebKit/537.36 (KHTML, like Gecko) Chrome/123.0.0.0 Safari/537.36" etag="uonHK97BTxRj4FOjHVHI" version="24.0.7" type="github">
  <diagram id="Ht1M8jgEwFfnCIfOTk4-" name="Page-1">
    <mxGraphModel dx="5274" dy="738" grid="1" gridSize="10" guides="1" tooltips="1" connect="1" arrows="1" fold="1" page="1" pageScale="1" pageWidth="1600" pageHeight="900" math="0" shadow="0">
      <root>
        <mxCell id="0" />
        <mxCell id="1" parent="0" />
        <mxCell id="tqSFLJiljVYi1BbEW_F7-6" style="edgeStyle=orthogonalEdgeStyle;rounded=0;orthogonalLoop=1;jettySize=auto;html=1;exitX=0.5;exitY=0;exitDx=0;exitDy=0;exitPerimeter=0;" parent="1" source="tqSFLJiljVYi1BbEW_F7-30" target="tqSFLJiljVYi1BbEW_F7-5" edge="1">
          <mxGeometry relative="1" as="geometry">
            <mxPoint x="-1848.8095238095239" y="370" as="sourcePoint" />
            <Array as="points">
              <mxPoint x="-1900" y="366" />
              <mxPoint x="-1650" y="366" />
              <mxPoint x="-1650" y="161" />
            </Array>
          </mxGeometry>
        </mxCell>
        <mxCell id="tqSFLJiljVYi1BbEW_F7-4" value="Proposta de Sistema Interbancario" style="text;strokeColor=none;fillColor=none;html=1;fontSize=24;fontStyle=1;verticalAlign=middle;align=center;" parent="1" vertex="1">
          <mxGeometry x="-2050" y="70" width="100" height="40" as="geometry" />
        </mxCell>
        <mxCell id="tqSFLJiljVYi1BbEW_F7-17" style="edgeStyle=orthogonalEdgeStyle;rounded=0;orthogonalLoop=1;jettySize=auto;html=1;" parent="1" source="tqSFLJiljVYi1BbEW_F7-5" target="tqSFLJiljVYi1BbEW_F7-15" edge="1">
          <mxGeometry relative="1" as="geometry" />
        </mxCell>
        <mxCell id="tqSFLJiljVYi1BbEW_F7-5" value="&lt;div&gt;&lt;span style=&quot;font-size: 24px;&quot;&gt;&lt;b&gt;pagamentos_pix&lt;/b&gt;&lt;/span&gt;&lt;/div&gt;&lt;div&gt;&lt;span style=&quot;font-size: 24px;&quot;&gt;&lt;b&gt;&lt;br&gt;&lt;/b&gt;&lt;/span&gt;&lt;/div&gt;" style="outlineConnect=0;dashed=0;verticalLabelPosition=bottom;verticalAlign=top;align=center;html=1;shape=mxgraph.aws3.dynamo_db;fillColor=#2E73B8;gradientColor=none;" parent="1" vertex="1">
          <mxGeometry x="-1520" y="120" width="72" height="81" as="geometry" />
        </mxCell>
        <mxCell id="tqSFLJiljVYi1BbEW_F7-25" style="edgeStyle=orthogonalEdgeStyle;rounded=0;orthogonalLoop=1;jettySize=auto;html=1;" parent="1" source="tqSFLJiljVYi1BbEW_F7-11" target="tqSFLJiljVYi1BbEW_F7-24" edge="1">
          <mxGeometry relative="1" as="geometry" />
        </mxCell>
        <mxCell id="tqSFLJiljVYi1BbEW_F7-11" value="" style="outlineConnect=0;dashed=0;verticalLabelPosition=bottom;verticalAlign=top;align=center;html=1;shape=mxgraph.aws3.api_gateway;fillColor=#D9A741;gradientColor=none;" parent="1" vertex="1">
          <mxGeometry x="-2580" y="226" width="76.5" height="93" as="geometry" />
        </mxCell>
        <mxCell id="tqSFLJiljVYi1BbEW_F7-14" value="/pagamento" style="text;strokeColor=none;fillColor=none;html=1;fontSize=24;fontStyle=1;verticalAlign=middle;align=center;" parent="1" vertex="1">
          <mxGeometry x="-2580" y="146" width="100" height="40" as="geometry" />
        </mxCell>
        <mxCell id="tqSFLJiljVYi1BbEW_F7-87" style="edgeStyle=orthogonalEdgeStyle;rounded=0;orthogonalLoop=1;jettySize=auto;html=1;" parent="1" source="tqSFLJiljVYi1BbEW_F7-15" target="tqSFLJiljVYi1BbEW_F7-86" edge="1">
          <mxGeometry relative="1" as="geometry" />
        </mxCell>
        <mxCell id="tqSFLJiljVYi1BbEW_F7-15" value="&lt;b&gt;Lambda para copiar dados inseridos&lt;/b&gt;" style="outlineConnect=0;dashed=0;verticalLabelPosition=bottom;verticalAlign=top;align=center;html=1;shape=mxgraph.aws3.lambda_function;fillColor=#F58534;gradientColor=none;" parent="1" vertex="1">
          <mxGeometry x="-750" y="790" width="69" height="72" as="geometry" />
        </mxCell>
        <mxCell id="tqSFLJiljVYi1BbEW_F7-21" value="&lt;span style=&quot;color: rgb(0, 0, 0); font-family: Helvetica; font-size: 12px; font-style: normal; font-variant-ligatures: normal; font-variant-caps: normal; font-weight: 400; letter-spacing: normal; orphans: 2; text-align: center; text-indent: 0px; text-transform: none; widows: 2; word-spacing: 0px; -webkit-text-stroke-width: 0px; white-space: nowrap; background-color: rgb(251, 251, 251); text-decoration-thickness: initial; text-decoration-style: initial; text-decoration-color: initial; display: inline !important; float: none;&quot;&gt;Api GWT&lt;/span&gt;" style="text;whiteSpace=wrap;html=1;" parent="1" vertex="1">
          <mxGeometry x="-2580" y="186" width="80" height="40" as="geometry" />
        </mxCell>
        <mxCell id="tqSFLJiljVYi1BbEW_F7-23" style="edgeStyle=orthogonalEdgeStyle;rounded=0;orthogonalLoop=1;jettySize=auto;html=1;entryX=0.5;entryY=0;entryDx=0;entryDy=0;entryPerimeter=0;" parent="1" source="tqSFLJiljVYi1BbEW_F7-27" target="tqSFLJiljVYi1BbEW_F7-5" edge="1">
          <mxGeometry relative="1" as="geometry">
            <mxPoint x="-1797.6" y="581.1904761904761" as="sourcePoint" />
          </mxGeometry>
        </mxCell>
        <mxCell id="tqSFLJiljVYi1BbEW_F7-39" style="edgeStyle=orthogonalEdgeStyle;rounded=0;orthogonalLoop=1;jettySize=auto;html=1;" parent="1" source="tqSFLJiljVYi1BbEW_F7-24" target="tqSFLJiljVYi1BbEW_F7-30" edge="1">
          <mxGeometry relative="1" as="geometry">
            <Array as="points">
              <mxPoint x="-2120" y="276" />
              <mxPoint x="-2120" y="381" />
            </Array>
          </mxGeometry>
        </mxCell>
        <mxCell id="tqSFLJiljVYi1BbEW_F7-43" value="&lt;b&gt;&lt;font style=&quot;font-size: 14px;&quot;&gt;post&lt;/font&gt;&lt;/b&gt;" style="edgeLabel;html=1;align=center;verticalAlign=middle;resizable=0;points=[];" parent="tqSFLJiljVYi1BbEW_F7-39" vertex="1" connectable="0">
          <mxGeometry x="-0.4934" y="-2" relative="1" as="geometry">
            <mxPoint as="offset" />
          </mxGeometry>
        </mxCell>
        <mxCell id="tqSFLJiljVYi1BbEW_F7-24" value="Application Load Balancer" style="sketch=0;outlineConnect=0;fontColor=#232F3E;gradientColor=none;strokeColor=#ffffff;fillColor=#232F3E;dashed=0;verticalLabelPosition=middle;verticalAlign=bottom;align=center;html=1;whiteSpace=wrap;fontSize=10;fontStyle=1;spacing=3;shape=mxgraph.aws4.productIcon;prIcon=mxgraph.aws4.application_load_balancer;" parent="1" vertex="1">
          <mxGeometry x="-2430" y="246" width="80" height="110" as="geometry" />
        </mxCell>
        <mxCell id="tqSFLJiljVYi1BbEW_F7-81" style="edgeStyle=orthogonalEdgeStyle;rounded=0;orthogonalLoop=1;jettySize=auto;html=1;" parent="1" source="tqSFLJiljVYi1BbEW_F7-27" target="tqSFLJiljVYi1BbEW_F7-80" edge="1">
          <mxGeometry relative="1" as="geometry">
            <Array as="points">
              <mxPoint x="-1900" y="576" />
            </Array>
          </mxGeometry>
        </mxCell>
        <mxCell id="tqSFLJiljVYi1BbEW_F7-83" value="Text" style="edgeLabel;html=1;align=center;verticalAlign=middle;resizable=0;points=[];" parent="tqSFLJiljVYi1BbEW_F7-81" vertex="1" connectable="0">
          <mxGeometry x="-0.0053" y="-3" relative="1" as="geometry">
            <mxPoint as="offset" />
          </mxGeometry>
        </mxCell>
        <mxCell id="tqSFLJiljVYi1BbEW_F7-112" style="edgeStyle=orthogonalEdgeStyle;rounded=0;orthogonalLoop=1;jettySize=auto;html=1;" parent="1" source="tqSFLJiljVYi1BbEW_F7-27" target="tqSFLJiljVYi1BbEW_F7-106" edge="1">
          <mxGeometry relative="1" as="geometry">
            <Array as="points">
              <mxPoint x="-840" y="481" />
              <mxPoint x="-840" y="1201" />
            </Array>
          </mxGeometry>
        </mxCell>
        <mxCell id="tqSFLJiljVYi1BbEW_F7-27" value="&lt;div&gt;&lt;div&gt;&lt;br&gt;&lt;/div&gt;&lt;/div&gt;" style="outlineConnect=0;dashed=0;verticalLabelPosition=bottom;verticalAlign=top;align=center;html=1;shape=mxgraph.aws3.android;fillColor=#EE472A;gradientColor=none;" parent="1" vertex="1">
          <mxGeometry x="-1930" y="446" width="60" height="70" as="geometry" />
        </mxCell>
        <mxCell id="tqSFLJiljVYi1BbEW_F7-45" style="edgeStyle=orthogonalEdgeStyle;rounded=0;orthogonalLoop=1;jettySize=auto;html=1;" parent="1" source="tqSFLJiljVYi1BbEW_F7-30" target="tqSFLJiljVYi1BbEW_F7-44" edge="1">
          <mxGeometry relative="1" as="geometry" />
        </mxCell>
        <mxCell id="tqSFLJiljVYi1BbEW_F7-30" value="" style="outlineConnect=0;dashed=0;verticalLabelPosition=bottom;verticalAlign=top;align=center;html=1;shape=mxgraph.aws3.android;fillColor=#EE472A;gradientColor=none;" parent="1" vertex="1">
          <mxGeometry x="-1930" y="346" width="60" height="70" as="geometry" />
        </mxCell>
        <mxCell id="tqSFLJiljVYi1BbEW_F7-37" style="edgeStyle=orthogonalEdgeStyle;rounded=0;orthogonalLoop=1;jettySize=auto;html=1;entryX=0;entryY=0.5;entryDx=0;entryDy=0;entryPerimeter=0;" parent="1" source="tqSFLJiljVYi1BbEW_F7-24" target="tqSFLJiljVYi1BbEW_F7-27" edge="1">
          <mxGeometry relative="1" as="geometry">
            <Array as="points">
              <mxPoint x="-2140" y="296" />
              <mxPoint x="-2140" y="481" />
            </Array>
          </mxGeometry>
        </mxCell>
        <mxCell id="tqSFLJiljVYi1BbEW_F7-38" value="&lt;b style=&quot;font-size: 14px;&quot;&gt;put/id_pagamento&lt;/b&gt;" style="edgeLabel;html=1;align=center;verticalAlign=middle;resizable=0;points=[];" parent="tqSFLJiljVYi1BbEW_F7-37" vertex="1" connectable="0">
          <mxGeometry x="-0.9246" y="-2" relative="1" as="geometry">
            <mxPoint x="117" y="23" as="offset" />
          </mxGeometry>
        </mxCell>
        <mxCell id="tqSFLJiljVYi1BbEW_F7-40" value="&lt;b style=&quot;color: rgb(0, 0, 0); font-family: Helvetica; font-size: 12px; font-style: normal; font-variant-ligatures: normal; font-variant-caps: normal; letter-spacing: normal; orphans: 2; text-align: center; text-indent: 0px; text-transform: none; widows: 2; word-spacing: 0px; -webkit-text-stroke-width: 0px; white-space: nowrap; background-color: rgb(251, 251, 251); text-decoration-thickness: initial; text-decoration-style: initial; text-decoration-color: initial;&quot;&gt;&lt;font style=&quot;font-size: 14px;&quot;&gt;Incluir Pagamento&lt;/font&gt;&lt;/b&gt;" style="text;whiteSpace=wrap;html=1;" parent="1" vertex="1">
          <mxGeometry x="-1860" y="386" width="150" height="30" as="geometry" />
        </mxCell>
        <mxCell id="tqSFLJiljVYi1BbEW_F7-41" value="&lt;font style=&quot;font-size: 14px;&quot;&gt;&lt;b&gt;Confirmar Pagamento&lt;/b&gt;&lt;/font&gt;" style="text;whiteSpace=wrap;html=1;" parent="1" vertex="1">
          <mxGeometry x="-1860" y="496" width="180" height="20" as="geometry" />
        </mxCell>
        <mxCell id="tqSFLJiljVYi1BbEW_F7-44" value="&lt;b&gt;Consultar de Chaves Pix&lt;/b&gt;" style="outlineConnect=0;dashed=0;verticalLabelPosition=bottom;verticalAlign=top;align=center;html=1;shape=mxgraph.aws3.android;fillColor=#EE472A;gradientColor=none;" parent="1" vertex="1">
          <mxGeometry x="-880" y="376" width="60" height="70" as="geometry" />
        </mxCell>
        <mxCell id="tqSFLJiljVYi1BbEW_F7-46" value="Apis de Consulta" style="text;strokeColor=none;fillColor=none;html=1;fontSize=24;fontStyle=1;verticalAlign=middle;align=center;" parent="1" vertex="1">
          <mxGeometry x="-900" y="336" width="100" height="40" as="geometry" />
        </mxCell>
        <mxCell id="tqSFLJiljVYi1BbEW_F7-64" style="edgeStyle=orthogonalEdgeStyle;rounded=0;orthogonalLoop=1;jettySize=auto;html=1;" parent="1" source="tqSFLJiljVYi1BbEW_F7-54" target="tqSFLJiljVYi1BbEW_F7-63" edge="1">
          <mxGeometry relative="1" as="geometry">
            <Array as="points">
              <mxPoint x="-2360" y="935" />
              <mxPoint x="-2360" y="1106" />
              <mxPoint x="-2537" y="1106" />
            </Array>
          </mxGeometry>
        </mxCell>
        <mxCell id="tqSFLJiljVYi1BbEW_F7-54" value="Fraude" style="sketch=0;points=[[0,0,0],[0.25,0,0],[0.5,0,0],[0.75,0,0],[1,0,0],[0,1,0],[0.25,1,0],[0.5,1,0],[0.75,1,0],[1,1,0],[0,0.25,0],[0,0.5,0],[0,0.75,0],[1,0.25,0],[1,0.5,0],[1,0.75,0]];outlineConnect=0;fontColor=#232F3E;fillColor=#8C4FFF;strokeColor=#ffffff;dashed=0;verticalLabelPosition=bottom;verticalAlign=top;align=center;html=1;fontSize=12;fontStyle=0;aspect=fixed;shape=mxgraph.aws4.resourceIcon;resIcon=mxgraph.aws4.managed_streaming_for_kafka;" parent="1" vertex="1">
          <mxGeometry x="-2320" y="896" width="78" height="78" as="geometry" />
        </mxCell>
        <mxCell id="1ENyNrF--On0xtTAWl6J-3" style="edgeStyle=orthogonalEdgeStyle;rounded=0;orthogonalLoop=1;jettySize=auto;html=1;" edge="1" parent="1" source="tqSFLJiljVYi1BbEW_F7-55" target="1ENyNrF--On0xtTAWl6J-2">
          <mxGeometry relative="1" as="geometry">
            <Array as="points">
              <mxPoint x="-2031" y="1090" />
              <mxPoint x="-1777" y="1090" />
            </Array>
          </mxGeometry>
        </mxCell>
        <mxCell id="tqSFLJiljVYi1BbEW_F7-55" value="Bloqueia Saldo" style="sketch=0;points=[[0,0,0],[0.25,0,0],[0.5,0,0],[0.75,0,0],[1,0,0],[0,1,0],[0.25,1,0],[0.5,1,0],[0.75,1,0],[1,1,0],[0,0.25,0],[0,0.5,0],[0,0.75,0],[1,0.25,0],[1,0.5,0],[1,0.75,0]];outlineConnect=0;fontColor=#232F3E;fillColor=#8C4FFF;strokeColor=#ffffff;dashed=0;verticalLabelPosition=bottom;verticalAlign=top;align=center;html=1;fontSize=12;fontStyle=0;aspect=fixed;shape=mxgraph.aws4.resourceIcon;resIcon=mxgraph.aws4.managed_streaming_for_kafka;" parent="1" vertex="1">
          <mxGeometry x="-2070" y="896" width="78" height="78" as="geometry" />
        </mxCell>
        <mxCell id="tqSFLJiljVYi1BbEW_F7-68" style="edgeStyle=orthogonalEdgeStyle;rounded=0;orthogonalLoop=1;jettySize=auto;html=1;" parent="1" source="1ENyNrF--On0xtTAWl6J-1" target="tqSFLJiljVYi1BbEW_F7-67" edge="1">
          <mxGeometry relative="1" as="geometry">
            <mxPoint x="-1850" y="935" as="sourcePoint" />
          </mxGeometry>
        </mxCell>
        <mxCell id="tqSFLJiljVYi1BbEW_F7-59" style="edgeStyle=orthogonalEdgeStyle;rounded=0;orthogonalLoop=1;jettySize=auto;html=1;entryX=0.5;entryY=0;entryDx=0;entryDy=0;entryPerimeter=0;exitX=0;exitY=0.5;exitDx=0;exitDy=0;exitPerimeter=0;" parent="1" source="tqSFLJiljVYi1BbEW_F7-79" target="tqSFLJiljVYi1BbEW_F7-54" edge="1">
          <mxGeometry relative="1" as="geometry">
            <mxPoint x="-1190" y="682.5" as="sourcePoint" />
            <Array as="points">
              <mxPoint x="-1180" y="681" />
              <mxPoint x="-1430" y="681" />
              <mxPoint x="-1430" y="766" />
              <mxPoint x="-2281" y="766" />
            </Array>
          </mxGeometry>
        </mxCell>
        <mxCell id="tqSFLJiljVYi1BbEW_F7-60" style="edgeStyle=orthogonalEdgeStyle;rounded=0;orthogonalLoop=1;jettySize=auto;html=1;entryX=0.5;entryY=0;entryDx=0;entryDy=0;entryPerimeter=0;exitX=0.5;exitY=1;exitDx=0;exitDy=0;exitPerimeter=0;" parent="1" source="tqSFLJiljVYi1BbEW_F7-79" target="tqSFLJiljVYi1BbEW_F7-55" edge="1">
          <mxGeometry relative="1" as="geometry">
            <mxPoint x="-1151.6999999999998" y="729" as="sourcePoint" />
            <Array as="points">
              <mxPoint x="-1390" y="736" />
              <mxPoint x="-1390" y="796" />
              <mxPoint x="-2031" y="796" />
            </Array>
          </mxGeometry>
        </mxCell>
        <mxCell id="tqSFLJiljVYi1BbEW_F7-63" value="Consulta Contas Com Bloqueio" style="outlineConnect=0;dashed=0;verticalLabelPosition=bottom;verticalAlign=top;align=center;html=1;shape=mxgraph.aws3.android;fillColor=#EE472A;gradientColor=none;" parent="1" vertex="1">
          <mxGeometry x="-2573.5" y="1166" width="73.5" height="84" as="geometry" />
        </mxCell>
        <mxCell id="tqSFLJiljVYi1BbEW_F7-65" value="Verifica Saldo e Bloqueia" style="outlineConnect=0;dashed=0;verticalLabelPosition=bottom;verticalAlign=top;align=center;html=1;shape=mxgraph.aws3.android;fillColor=#EE472A;gradientColor=none;" parent="1" vertex="1">
          <mxGeometry x="-2250" y="1166" width="73.5" height="84" as="geometry" />
        </mxCell>
        <mxCell id="tqSFLJiljVYi1BbEW_F7-66" style="edgeStyle=orthogonalEdgeStyle;rounded=0;orthogonalLoop=1;jettySize=auto;html=1;entryX=0.5;entryY=0;entryDx=0;entryDy=0;entryPerimeter=0;" parent="1" source="tqSFLJiljVYi1BbEW_F7-55" target="tqSFLJiljVYi1BbEW_F7-65" edge="1">
          <mxGeometry relative="1" as="geometry">
            <Array as="points">
              <mxPoint x="-2150" y="935" />
              <mxPoint x="-2150" y="1166" />
            </Array>
          </mxGeometry>
        </mxCell>
        <mxCell id="tqSFLJiljVYi1BbEW_F7-74" style="edgeStyle=orthogonalEdgeStyle;rounded=0;orthogonalLoop=1;jettySize=auto;html=1;" parent="1" source="tqSFLJiljVYi1BbEW_F7-67" target="tqSFLJiljVYi1BbEW_F7-71" edge="1">
          <mxGeometry relative="1" as="geometry">
            <Array as="points">
              <mxPoint x="-1880" y="1198" />
              <mxPoint x="-1880" y="1616" />
              <mxPoint x="-2320" y="1616" />
              <mxPoint x="-2320" y="1507" />
            </Array>
          </mxGeometry>
        </mxCell>
        <mxCell id="tqSFLJiljVYi1BbEW_F7-67" value="Efetivar Pagamentos" style="outlineConnect=0;dashed=0;verticalLabelPosition=bottom;verticalAlign=top;align=center;html=1;shape=mxgraph.aws3.android;fillColor=#EE472A;gradientColor=none;" parent="1" vertex="1">
          <mxGeometry x="-1980" y="1156" width="73.5" height="84" as="geometry" />
        </mxCell>
        <mxCell id="tqSFLJiljVYi1BbEW_F7-69" value="&lt;font style=&quot;font-size: 14px;&quot;&gt;&lt;b&gt;RDS&lt;/b&gt;&lt;/font&gt;&lt;div&gt;&lt;b&gt;&lt;font size=&quot;3&quot; style=&quot;&quot;&gt;CONTA_BLOQUEADA&lt;/font&gt;&lt;/b&gt;&lt;/div&gt;" style="outlineConnect=0;dashed=0;verticalLabelPosition=bottom;verticalAlign=top;align=center;html=1;shape=mxgraph.aws3.rds;fillColor=#2E73B8;gradientColor=none;" parent="1" vertex="1">
          <mxGeometry x="-2940" y="1466" width="72" height="81" as="geometry" />
        </mxCell>
        <mxCell id="tqSFLJiljVYi1BbEW_F7-70" style="edgeStyle=orthogonalEdgeStyle;rounded=0;orthogonalLoop=1;jettySize=auto;html=1;entryX=0;entryY=0.5;entryDx=0;entryDy=0;entryPerimeter=0;" parent="1" source="tqSFLJiljVYi1BbEW_F7-69" target="tqSFLJiljVYi1BbEW_F7-63" edge="1">
          <mxGeometry relative="1" as="geometry" />
        </mxCell>
        <mxCell id="tqSFLJiljVYi1BbEW_F7-71" value="&lt;font style=&quot;font-size: 14px;&quot;&gt;&lt;b&gt;RDS&amp;nbsp;&lt;/b&gt;&lt;/font&gt;&lt;div&gt;&lt;font style=&quot;font-size: 14px;&quot;&gt;&lt;b&gt;SALDO_CONTA_BLOQUEADO&lt;/b&gt;&lt;/font&gt;&lt;/div&gt;" style="outlineConnect=0;dashed=0;verticalLabelPosition=bottom;verticalAlign=top;align=center;html=1;shape=mxgraph.aws3.rds;fillColor=#2E73B8;gradientColor=none;" parent="1" vertex="1">
          <mxGeometry x="-2460" y="1466" width="72" height="81" as="geometry" />
        </mxCell>
        <mxCell id="tqSFLJiljVYi1BbEW_F7-72" style="edgeStyle=orthogonalEdgeStyle;rounded=0;orthogonalLoop=1;jettySize=auto;html=1;entryX=0;entryY=0.5;entryDx=0;entryDy=0;entryPerimeter=0;" parent="1" source="tqSFLJiljVYi1BbEW_F7-71" target="tqSFLJiljVYi1BbEW_F7-65" edge="1">
          <mxGeometry relative="1" as="geometry" />
        </mxCell>
        <mxCell id="tqSFLJiljVYi1BbEW_F7-75" value="&lt;font style=&quot;font-size: 14px;&quot;&gt;&lt;b&gt;RDS&amp;nbsp;&lt;/b&gt;&lt;/font&gt;&lt;div&gt;&lt;font style=&quot;font-size: 14px;&quot;&gt;&lt;b&gt;SALDO CONTA&lt;/b&gt;&lt;/font&gt;&lt;/div&gt;" style="outlineConnect=0;dashed=0;verticalLabelPosition=bottom;verticalAlign=top;align=center;html=1;shape=mxgraph.aws3.rds;fillColor=#2E73B8;gradientColor=none;" parent="1" vertex="1">
          <mxGeometry x="-2020" y="1476" width="72" height="81" as="geometry" />
        </mxCell>
        <mxCell id="tqSFLJiljVYi1BbEW_F7-76" style="edgeStyle=orthogonalEdgeStyle;rounded=0;orthogonalLoop=1;jettySize=auto;html=1;entryX=0;entryY=0.78;entryDx=0;entryDy=0;entryPerimeter=0;" parent="1" source="tqSFLJiljVYi1BbEW_F7-67" target="tqSFLJiljVYi1BbEW_F7-75" edge="1">
          <mxGeometry relative="1" as="geometry">
            <Array as="points">
              <mxPoint x="-2010" y="1198" />
              <mxPoint x="-2010" y="1358" />
              <mxPoint x="-2040" y="1358" />
              <mxPoint x="-2040" y="1539" />
            </Array>
          </mxGeometry>
        </mxCell>
        <mxCell id="tqSFLJiljVYi1BbEW_F7-84" style="edgeStyle=orthogonalEdgeStyle;rounded=0;orthogonalLoop=1;jettySize=auto;html=1;exitX=1;exitY=0.5;exitDx=0;exitDy=0;exitPerimeter=0;" parent="1" source="tqSFLJiljVYi1BbEW_F7-79" target="tqSFLJiljVYi1BbEW_F7-5" edge="1">
          <mxGeometry relative="1" as="geometry">
            <Array as="points">
              <mxPoint x="-1150" y="546" />
              <mxPoint x="-1200" y="546" />
              <mxPoint x="-1200" y="196" />
            </Array>
          </mxGeometry>
        </mxCell>
        <mxCell id="tqSFLJiljVYi1BbEW_F7-79" value="&lt;div&gt;&lt;div&gt;&lt;b&gt;&lt;font style=&quot;font-size: 14px;&quot;&gt;Efetivacao Pagamento Pix&lt;/font&gt;&lt;/b&gt;&lt;/div&gt;&lt;/div&gt;" style="outlineConnect=0;dashed=0;verticalLabelPosition=bottom;verticalAlign=top;align=center;html=1;shape=mxgraph.aws3.android;fillColor=#EE472A;gradientColor=none;" parent="1" vertex="1">
          <mxGeometry x="-1210" y="666" width="60" height="70" as="geometry" />
        </mxCell>
        <mxCell id="tqSFLJiljVYi1BbEW_F7-82" style="edgeStyle=orthogonalEdgeStyle;rounded=0;orthogonalLoop=1;jettySize=auto;html=1;" parent="1" source="tqSFLJiljVYi1BbEW_F7-80" target="tqSFLJiljVYi1BbEW_F7-79" edge="1">
          <mxGeometry relative="1" as="geometry">
            <Array as="points">
              <mxPoint x="-1180" y="620" />
            </Array>
          </mxGeometry>
        </mxCell>
        <mxCell id="tqSFLJiljVYi1BbEW_F7-80" value="&lt;font style=&quot;font-size: 14px;&quot;&gt;&lt;b&gt;&lt;u&gt;SQs Fila Efetivacao&lt;/u&gt;&lt;/b&gt;&lt;/font&gt;" style="outlineConnect=0;dashed=0;verticalLabelPosition=bottom;verticalAlign=top;align=center;html=1;shape=mxgraph.aws3.sqs;fillColor=#D9A741;gradientColor=none;" parent="1" vertex="1">
          <mxGeometry x="-1580" y="573" width="76.5" height="93" as="geometry" />
        </mxCell>
        <mxCell id="tqSFLJiljVYi1BbEW_F7-88" style="edgeStyle=orthogonalEdgeStyle;rounded=0;orthogonalLoop=1;jettySize=auto;html=1;" parent="1" source="tqSFLJiljVYi1BbEW_F7-86" target="tqSFLJiljVYi1BbEW_F7-89" edge="1">
          <mxGeometry relative="1" as="geometry">
            <mxPoint x="-2250" y="556" as="targetPoint" />
            <Array as="points">
              <mxPoint x="-530" y="667" />
              <mxPoint x="-530" y="1716" />
              <mxPoint x="-3010" y="1716" />
              <mxPoint x="-3010" y="656" />
              <mxPoint x="-1940" y="656" />
              <mxPoint x="-1940" y="561" />
            </Array>
          </mxGeometry>
        </mxCell>
        <mxCell id="tqSFLJiljVYi1BbEW_F7-86" value="&lt;b&gt;&lt;font style=&quot;font-size: 14px;&quot;&gt;pix_consulta&lt;/font&gt;&lt;/b&gt;" style="outlineConnect=0;dashed=0;verticalLabelPosition=bottom;verticalAlign=top;align=center;html=1;shape=mxgraph.aws3.dynamo_db;fillColor=#2E73B8;gradientColor=none;" parent="1" vertex="1">
          <mxGeometry x="-620" y="626" width="72" height="81" as="geometry" />
        </mxCell>
        <mxCell id="tqSFLJiljVYi1BbEW_F7-89" value="&lt;div&gt;&lt;b&gt;Consulta Pix Pagamentos&lt;/b&gt;&lt;div&gt;&lt;br&gt;&lt;/div&gt;&lt;/div&gt;" style="outlineConnect=0;dashed=0;verticalLabelPosition=bottom;verticalAlign=top;align=center;html=1;shape=mxgraph.aws3.android;fillColor=#EE472A;gradientColor=none;" parent="1" vertex="1">
          <mxGeometry x="-2040" y="526" width="60" height="70" as="geometry" />
        </mxCell>
        <mxCell id="tqSFLJiljVYi1BbEW_F7-93" style="edgeStyle=orthogonalEdgeStyle;rounded=0;orthogonalLoop=1;jettySize=auto;html=1;entryX=0;entryY=0.5;entryDx=0;entryDy=0;entryPerimeter=0;" parent="1" source="tqSFLJiljVYi1BbEW_F7-24" target="tqSFLJiljVYi1BbEW_F7-89" edge="1">
          <mxGeometry relative="1" as="geometry">
            <Array as="points">
              <mxPoint x="-2285" y="316" />
              <mxPoint x="-2285" y="561" />
            </Array>
          </mxGeometry>
        </mxCell>
        <mxCell id="tqSFLJiljVYi1BbEW_F7-96" value="&lt;div&gt;&lt;b style=&quot;font-size: 14px;&quot;&gt;get/id_pagamento&lt;/b&gt;&lt;b style=&quot;font-size: 12px; background-color: rgb(251, 251, 251);&quot;&gt;&lt;br&gt;&lt;/b&gt;&lt;/div&gt;" style="edgeLabel;html=1;align=center;verticalAlign=middle;resizable=0;points=[];" parent="tqSFLJiljVYi1BbEW_F7-93" vertex="1" connectable="0">
          <mxGeometry x="-0.7627" y="-2" relative="1" as="geometry">
            <mxPoint x="16" y="93" as="offset" />
          </mxGeometry>
        </mxCell>
        <mxCell id="tqSFLJiljVYi1BbEW_F7-105" style="edgeStyle=orthogonalEdgeStyle;rounded=0;orthogonalLoop=1;jettySize=auto;html=1;entryX=0;entryY=0.5;entryDx=0;entryDy=0;entryPerimeter=0;" parent="1" source="tqSFLJiljVYi1BbEW_F7-65" target="tqSFLJiljVYi1BbEW_F7-75" edge="1">
          <mxGeometry relative="1" as="geometry" />
        </mxCell>
        <mxCell id="tqSFLJiljVYi1BbEW_F7-106" value="&lt;b&gt;Consulta Contas&amp;nbsp;&lt;/b&gt;" style="outlineConnect=0;dashed=0;verticalLabelPosition=bottom;verticalAlign=top;align=center;html=1;shape=mxgraph.aws3.android;fillColor=#EE472A;gradientColor=none;" parent="1" vertex="1">
          <mxGeometry x="-1690" y="1166" width="60" height="70" as="geometry" />
        </mxCell>
        <mxCell id="tqSFLJiljVYi1BbEW_F7-109" style="edgeStyle=orthogonalEdgeStyle;rounded=0;orthogonalLoop=1;jettySize=auto;html=1;" parent="1" source="tqSFLJiljVYi1BbEW_F7-107" target="tqSFLJiljVYi1BbEW_F7-75" edge="1">
          <mxGeometry relative="1" as="geometry" />
        </mxCell>
        <mxCell id="tqSFLJiljVYi1BbEW_F7-107" value="&lt;font style=&quot;font-size: 14px;&quot;&gt;&lt;b&gt;RDS&amp;nbsp;&lt;/b&gt;&lt;/font&gt;&lt;div&gt;&lt;span style=&quot;font-size: 14px;&quot;&gt;&lt;b&gt;DADO_CONTA&lt;/b&gt;&lt;/span&gt;&lt;/div&gt;" style="outlineConnect=0;dashed=0;verticalLabelPosition=bottom;verticalAlign=top;align=center;html=1;shape=mxgraph.aws3.rds;fillColor=#2E73B8;gradientColor=none;" parent="1" vertex="1">
          <mxGeometry x="-1690" y="1480" width="72" height="81" as="geometry" />
        </mxCell>
        <mxCell id="tqSFLJiljVYi1BbEW_F7-110" style="edgeStyle=orthogonalEdgeStyle;rounded=0;orthogonalLoop=1;jettySize=auto;html=1;entryX=0.5;entryY=0;entryDx=0;entryDy=0;entryPerimeter=0;" parent="1" source="tqSFLJiljVYi1BbEW_F7-106" target="tqSFLJiljVYi1BbEW_F7-107" edge="1">
          <mxGeometry relative="1" as="geometry" />
        </mxCell>
        <mxCell id="1ENyNrF--On0xtTAWl6J-1" value="Batch de Efetivacao" style="outlineConnect=0;dashed=0;verticalLabelPosition=bottom;verticalAlign=top;align=center;html=1;shape=mxgraph.aws3.batch;fillColor=#F58534;gradientColor=none;" vertex="1" parent="1">
          <mxGeometry x="-1888.25" y="888.5" width="76.5" height="93" as="geometry" />
        </mxCell>
        <mxCell id="1ENyNrF--On0xtTAWl6J-2" value="&lt;span style=&quot;font-size: 14px;&quot;&gt;&lt;b&gt;RDS&lt;/b&gt;&lt;/span&gt;&lt;div&gt;&lt;span style=&quot;font-size: 14px;&quot;&gt;&lt;b&gt;SOLICITACAO_BLOQUEIO_SALDO&lt;/b&gt;&lt;/span&gt;&lt;/div&gt;" style="outlineConnect=0;dashed=0;verticalLabelPosition=bottom;verticalAlign=top;align=center;html=1;shape=mxgraph.aws3.rds;fillColor=#2E73B8;gradientColor=none;" vertex="1" parent="1">
          <mxGeometry x="-1780" y="1050" width="46.5" height="50" as="geometry" />
        </mxCell>
      </root>
    </mxGraphModel>
  </diagram>
</mxfile>
